<?xml version="1.0" encoding="UTF-8"?>
<svg id="Réteg_2" data-name="Réteg 2" xmlns="http://www.w3.org/2000/svg" viewBox="0 0 182.16 200">
  <defs>
    <style>
      .cls-1 {
        fill-rule: evenodd;
        fill: #000;
      }
    </style>
  </defs>
  <g id="Réteg_1" data-name="Réteg 1">
    <path class="cls-1" d="m119.6,16.33c-12.78-21.78-44.27-21.78-57.05,0l-.46.79c-5.9,10.04-16.64,16.25-28.29,16.33h-.92c-25.25.18-40.99,27.45-28.52,49.41l.45.8c5.75,10.13,5.75,22.54,0,32.66l-.45.8c-12.47,21.96,3.27,49.23,28.52,49.4h.92c11.65.09,22.4,6.3,28.29,16.34l.46.8c12.78,21.78,44.27,21.78,57.05,0l.46-.8c5.9-10.04,16.64-16.25,28.29-16.33h.92c25.25-.18,40.99-27.45,28.52-49.41l-.45-.8c-5.75-10.12-5.75-22.53,0-32.66l.45-.8c12.47-21.96-3.27-49.23-28.52-49.4h-.92c-11.65-.09-22.39-6.3-28.29-16.34l-.46-.79Zm-28.52,133.26c27.4,0,49.6-22.2,49.6-49.6s-22.21-49.6-49.6-49.6-49.6,22.2-49.6,49.6,22.21,49.6,49.6,49.6Z"/>
  </g>
</svg>