<?xml version="1.0" encoding="UTF-8"?>
<svg id="Réteg_1" data-name="Réteg 1" xmlns="http://www.w3.org/2000/svg" viewBox="0 0 203.08 159.08">
  <defs>
    <style>
      .color {
        fill: #fff;
        stroke: #fff;
      }

      .cls-1, .cls-2 {
        stroke-width: 6px;
      }

      .cls-1, .cls-2, .cls-3 {
        stroke-linecap: round;
        stroke-linejoin: round;
      }

      .cls-4 {
        opacity: .2;
      }

      .cls-2, .cls-3 {
        fill: none;
      }

      .cls-3 {
        stroke-width: 10px;
      }
    </style>
  </defs>
  <path class="cls-4 color" d="m177.53,79.08c-2.89,28.39-20.14,52.16-46.58,62.46-4.61,1.8-9.52,2.7-14.47,2.7h-29.87c-4.95,0-9.86-.91-14.48-2.7-26.44-10.3-43.67-34.06-46.56-62.46-.2-2-3.9-3.54-5.91-3.54h0c-2.23,0-4.03,1.86-3.91,4.08,1.86,34.96,27.51,64.03,62.07,73.32.34.09.69.14,1.04.14h45.36c.35,0,.7-.05,1.04-.14,34.56-9.3,60.21-38.37,62.07-73.32.12-2.22-1.68-4.08-3.91-4.08h0c-2.01,0-5.69,1.53-5.89,3.54Z"/>
  <line class="cls-3 color" x1="28.62" y1="154.08" x2="174.36" y2="154.08"/>
  <path class="cls-2 color" d="m95.02,155.08h13.03c26.79,0,52.13-13.12,66.79-35.55,7.99-12.22,12.59-26.6,12.59-41.99H15.64c0,15.39,4.61,29.77,12.59,41.99,14.66,22.43,40,35.55,66.79,35.55Z"/>
  <line class="cls-2 color" x1="3" y1="93.51" x2="69.88" y2="93.51"/>
  <line class="cls-2 color" x1="133.2" y1="93.51" x2="200.08" y2="93.51"/>
  <path class="cls-5 color" d="m118.5,104.29h0v-3.58c0-8.52-6.9-16.52-15.39-17.29-10.06-.91-18.54,7.02-18.54,16.89v3.98h0c-3.31,0-5.99,2.68-5.99,5.99v23.91c0,5.53,4.48,10.01,10.01,10.01h25.87c5.53,0,10.01-4.48,10.01-10.01v-23.91c0-3.31-2.68-5.99-5.99-5.99Zm-27.94-1.46v-2.52c0-6.66,5.96-11.95,12.83-10.82,5.33.88,9.12,5.71,9.12,11.12v3.68h-21.95v-1.46Zm14.94,22.93v4.19h0c0,2.2-1.78,3.98-3.98,3.98s-3.98-1.78-3.98-3.98h0v-4.22c-1.4-1.16-2.3-2.91-2.3-4.87,0-3.48,2.82-6.3,6.3-6.3s6.3,2.82,6.3,6.3c0,1.98-.91,3.74-2.34,4.9Z"/>
  <line class="cls-1 color" x1="84.07" y1="13.66" x2="84.07" y2="53.02"/>
  <line class="cls-1 color" x1="101.49" y1="3" x2="101.49" y2="55.89"/>
  <line class="cls-1 color" x1="119.04" y1="7.1" x2="119.04" y2="47.69"/>
  <line class="cls-1 color" x1="84.07" y1="65.17" x2="84.07" y2="65.27"/>
  <line class="cls-1 color" x1="21.64" y1="65.26" x2="21.64" y2="65.36"/>
  <line class="cls-1 color" x1="181.44" y1="65.21" x2="181.44" y2="65.31"/>
  <line class="cls-1 color" x1="119.04" y1="61.71" x2="119.04" y2="61.81"/>
  <line class="cls-1 color" x1="67.17" y1="44.69" x2="67.17" y2="65.33"/>
  <line class="cls-1 color" x1="135.91" y1="41.06" x2="135.91" y2="65.33"/>
  <line class="cls-2 color" x1="148.08" y1="110.51" x2="179.93" y2="110.51"/>
  <line class="cls-2 color" x1="23.15" y1="110.51" x2="46.85" y2="110.51"/>
</svg>